<svg width="40" height="40" viewBox="0 0 40 40" fill="none" xmlns="http://www.w3.org/2000/svg">
<rect width="40" height="40" fill="white"/>
<path d="M19.4407 25.8402L15.3631 27.5986L18.83 29.387L19.4407 25.8402Z" fill="#7929D2"/>
<path d="M10.637 28.1706L6.28762 26.5075L7.29604 30L10.637 28.1706Z" fill="#9454DB"/>
<path d="M12.6995 25.0445L15.3631 27.5986L10.637 28.1706L12.6995 25.0445Z" fill="#AF7FE4"/>
<path d="M6.81273 22.6447L6.28762 26.5075L3 23.156L6.81273 22.6447Z" fill="#AF7FE4"/>
<path d="M19.4407 25.8402L30.1746 15.7542L35 22.2847L19.4407 25.8402Z" fill="url(#paint0_linear_761_2124)"/>
<path d="M19.4407 25.8402L24.0255 11L30.1746 15.7542L19.4407 25.8402Z" fill="url(#paint1_linear_761_2124)"/>
<path d="M24.0255 11H35L30.1746 15.7542L24.0255 11Z" fill="url(#paint2_linear_761_2124)"/>
<path d="M35 22.2847L35 11L30.1746 15.7542L35 22.2847Z" fill="url(#paint3_linear_761_2124)"/>
<defs>
<linearGradient id="paint0_linear_761_2124" x1="12.4997" y1="20.5" x2="37.8851" y2="20.5" gradientUnits="userSpaceOnUse">
<stop stop-color="#7929D2"/>
<stop offset="1" stop-color="#0070C5"/>
</linearGradient>
<linearGradient id="paint1_linear_761_2124" x1="19.2747" y1="9.32401" x2="19.2154" y2="25.2802" gradientUnits="userSpaceOnUse">
<stop stop-color="#00AEFF"/>
<stop offset="1" stop-color="#9454DB"/>
</linearGradient>
<linearGradient id="paint2_linear_761_2124" x1="25.3596" y1="26.4197" x2="13.2154" y2="11.394" gradientUnits="userSpaceOnUse">
<stop stop-color="#66A9DC"/>
<stop offset="1" stop-color="#B1E4FA"/>
</linearGradient>
<linearGradient id="paint3_linear_761_2124" x1="16.9618" y1="11.3462" x2="17.6424" y2="29.5015" gradientUnits="userSpaceOnUse">
<stop stop-color="#00AEFF"/>
<stop offset="1" stop-color="#9454DB"/>
</linearGradient>
</defs>
</svg>
