<svg width="40" height="40" viewBox="0 0 40 40" fill="none" xmlns="http://www.w3.org/2000/svg">
<rect width="40" height="40" fill="white"/>
<path d="M31.0811 15.2805C31.1074 15.2792 31.1339 15.2797 31.1602 15.2796L33.14 15.277C33.5784 15.278 34.0954 15.2384 34.5193 15.3396C34.8811 15.426 35.2107 15.5986 35.4754 15.8624C35.9262 16.3118 36.119 16.9595 36.1193 17.5854C36.119 17.6138 36.1183 17.6422 36.1174 17.6706C36.1164 17.699 36.1152 17.7273 36.1135 17.7557C36.1119 17.784 36.11 17.8123 36.1076 17.8406C36.1053 17.8689 36.1026 17.8972 36.0996 17.9254C36.0966 17.9537 36.0933 17.9819 36.0896 18.01C36.0859 18.0382 36.0818 18.0663 36.0775 18.0943C36.0731 18.1224 36.0684 18.1504 36.0633 18.1783C36.0583 18.2062 36.053 18.2341 36.0473 18.2619C36.0416 18.2897 36.0355 18.3175 36.029 18.3451C36.0227 18.3728 36.016 18.4004 36.0089 18.4279C36.0019 18.4554 35.9945 18.4828 35.9867 18.5101C35.979 18.5374 35.971 18.5646 35.9626 18.5917C35.9543 18.6189 35.9456 18.6459 35.9365 18.6728C35.9275 18.6997 35.9181 18.7265 35.9085 18.7532C35.8988 18.7799 35.8888 18.8064 35.8786 18.8329C35.8682 18.8593 35.8576 18.8856 35.8466 18.9118C35.8357 18.938 35.8244 18.964 35.8128 18.9899C35.8013 19.0158 35.7894 19.0416 35.7771 19.0672C35.765 19.0928 35.7525 19.1183 35.7397 19.1436C35.7268 19.1689 35.7137 19.1941 35.7003 19.2191C35.6869 19.2441 35.6732 19.2689 35.6591 19.2936C35.6451 19.3182 35.6308 19.3427 35.6161 19.367C35.6015 19.3913 35.5867 19.4155 35.5715 19.4394C35.5563 19.4634 35.5408 19.4871 35.525 19.5107C35.5093 19.5343 35.4932 19.5577 35.4769 19.5808C35.4605 19.604 35.4439 19.627 35.427 19.6498C35.4101 19.6726 35.393 19.6951 35.3755 19.7175C35.3581 19.7398 35.3404 19.762 35.3225 19.7839C35.3044 19.8059 35.2862 19.8276 35.2677 19.849C35.2492 19.8705 35.2304 19.8918 35.2115 19.9128C35.1925 19.9338 35.1732 19.9546 35.1536 19.9752C35.1342 19.9958 35.1144 20.0161 35.0944 20.0362C34.4918 20.639 33.6937 20.9755 32.8506 21.0472C32.5161 21.0757 32.1773 21.0651 31.8417 21.0652L30.3439 21.0647C30.347 21.0739 30.349 21.0802 30.349 21.0899C30.3493 21.1849 30.2206 21.6489 30.1917 21.7709L29.9267 22.888C29.8807 23.0817 29.8399 23.2787 29.7872 23.4706C29.7806 23.4949 29.773 23.5109 29.7555 23.5296L27.1512 23.5021C27.1583 23.4955 27.1655 23.4882 27.1702 23.4796C27.2091 23.4097 27.3256 22.8518 27.3565 22.7229L27.924 20.3513C27.9562 20.2165 28.1635 19.423 28.1466 19.3618C28.1525 19.3549 28.1577 19.3487 28.1618 19.3404C28.1922 19.2773 28.3102 18.8027 28.2911 18.7454C28.9572 18.7634 29.6279 18.7571 30.2945 18.7595C30.571 18.7605 30.8517 18.7512 31.1276 18.7651L31.131 18.7693C31.1679 18.8177 31.6082 20.5288 31.5999 20.5861C31.6065 20.5815 31.6108 20.5788 31.6165 20.5735C31.6832 20.5111 31.879 20.1716 31.9483 20.0631C32.2151 19.6449 32.498 19.2301 32.7507 18.8034C32.7587 18.7899 32.7604 18.7811 32.7617 18.7656C33.2485 18.6478 33.7313 18.5023 34.2145 18.3701C34.525 18.2851 34.857 18.2179 35.1587 18.1077C35.0502 18.0549 34.6151 17.9564 34.4727 17.9179L33.5411 17.6668C33.3612 17.6184 33.1809 17.5641 32.9989 17.5248C33.0005 17.5192 33.0019 17.5156 33.0025 17.51C33.0075 17.4581 32.5758 15.8867 32.5334 15.7476C32.5281 15.7303 32.5203 15.7167 32.5095 15.7023C32.5092 15.7063 32.5096 15.7104 32.5089 15.7143C32.5023 15.7536 31.521 17.3169 31.4184 17.4678C31.4082 17.4829 31.3962 17.4939 31.3816 17.5046L28.5918 17.4883C28.5988 17.4803 28.6053 17.4719 28.6102 17.4624C28.6539 17.3763 28.7304 16.981 28.7599 16.8582C28.879 16.3613 29.0136 15.8629 29.1165 15.3626C29.1207 15.3424 29.1217 15.3286 29.1156 15.3084C29.4399 15.3088 29.7659 15.2944 30.0905 15.2895C30.4206 15.2844 30.7511 15.2888 31.0811 15.2805Z" fill="#000999"/>
<path d="M18.1714 18.7441C18.2626 18.7294 18.3657 18.7378 18.4583 18.738L18.9925 18.739L20.885 18.7386C20.8917 18.7706 20.8394 18.8652 20.8251 18.8989C20.5657 19.51 20.458 20.2837 20.7127 20.9141C20.8426 21.2355 21.0762 21.5167 21.3996 21.6532C21.7576 21.8044 22.1528 21.7623 22.5054 21.6171C23.2208 21.3226 23.7639 20.6404 24.0559 19.9393C24.0731 19.8982 24.0896 19.8567 24.1052 19.8149C24.1208 19.7732 24.1356 19.7311 24.1495 19.6887C24.1634 19.6463 24.1765 19.6037 24.1886 19.5608C24.2008 19.5178 24.2121 19.4747 24.2225 19.4313C24.2329 19.3879 24.2424 19.3444 24.2512 19.3006C24.2598 19.2568 24.2676 19.2129 24.2745 19.1688C24.2813 19.1247 24.2872 19.0805 24.2924 19.0362C24.2974 18.9919 24.3016 18.9475 24.3049 18.903C24.3081 18.855 24.3191 18.7837 24.3006 18.7386H26.9681C26.9758 18.7536 26.9792 18.7702 26.9794 18.7869C26.9819 19.1496 26.7995 19.7557 26.6665 20.0985C26.6402 20.1661 26.6117 20.267 26.5592 20.3167C26.5597 20.3203 26.5602 20.3238 26.5606 20.3273C26.5633 20.3631 26.5174 20.441 26.5012 20.4744C26.3141 20.8622 26.0682 21.2337 25.7968 21.567C24.8396 22.7427 23.4106 23.5889 21.8943 23.741C20.8883 23.8419 19.8351 23.6203 19.0413 22.9653C18.0038 22.1093 17.6898 20.7432 17.9698 19.4622C18.0156 19.2529 18.0788 19.0567 18.1471 18.854C18.158 18.8218 18.1765 18.7831 18.1722 18.7491L18.1714 18.7441Z" fill="#000999"/>
<path d="M8.78069 18.6945H11.4862C11.2213 19.256 11.0794 19.9332 11.2099 20.5492C11.2912 20.933 11.4811 21.2985 11.8169 21.5158C12.109 21.7048 12.4586 21.7424 12.794 21.6693C13.4876 21.518 14.0247 20.9725 14.3951 20.3932H17.0936C17.0949 20.4044 17.0947 20.4148 17.0916 20.4257C17.0356 20.6156 16.4653 21.5122 16.3056 21.6046C16.3043 21.6112 16.3027 21.6184 16.2999 21.6246C16.2668 21.6982 16.1362 21.816 16.0751 21.8795C16.0422 21.914 16.0089 21.9481 15.9753 21.9818C15.9416 22.0155 15.9075 22.0488 15.8732 22.0817C15.8387 22.1146 15.8039 22.1471 15.7688 22.1792C15.7335 22.2112 15.6979 22.2429 15.662 22.2742C15.6261 22.3055 15.5899 22.3363 15.5532 22.3667C15.5167 22.3972 15.4797 22.4272 15.4424 22.4567C15.4051 22.4863 15.3674 22.5154 15.3295 22.5441C15.2915 22.5728 15.2532 22.6011 15.2145 22.6289C15.1759 22.6567 15.137 22.6841 15.0977 22.711C15.0584 22.7379 15.0188 22.7643 14.979 22.7903C14.9391 22.8163 14.899 22.8418 14.8585 22.8669C14.8181 22.8919 14.7773 22.9165 14.7363 22.9406C14.6953 22.9647 14.654 22.9884 14.6124 23.0115C14.5709 23.0347 14.529 23.0573 14.4869 23.0795C14.4448 23.1017 14.4025 23.1234 14.3599 23.1446C14.3173 23.1658 14.2745 23.1865 14.2314 23.2067C13.1164 23.7271 11.7902 23.913 10.6154 23.4803C9.80363 23.1813 9.13684 22.5934 8.7735 21.8018C8.31412 20.801 8.40877 19.7006 8.78069 18.6945Z" fill="#000999"/>
<path d="M23.2318 15.0489C23.7052 15.0315 24.1765 15.0778 24.6316 15.215C25.4597 15.4646 26.1807 16.0088 26.592 16.7794C26.6574 16.902 26.9068 17.4372 26.8737 17.5473H23.9421C23.9416 17.5445 23.9412 17.5416 23.9405 17.5389C23.919 17.4623 23.7133 17.3096 23.6424 17.2649C23.3008 17.0496 22.9375 17.0619 22.5585 17.1482C22.4493 17.208 22.315 17.2364 22.2018 17.2955C22.0651 17.3668 21.9492 17.4685 21.8157 17.543L21.8079 17.5473H18.8198C18.8864 17.502 19.1356 17.1606 19.2175 17.0668C19.2489 17.0303 19.2807 16.9943 19.3131 16.9586C19.3453 16.9229 19.378 16.8876 19.4111 16.8528C19.4442 16.8179 19.4778 16.7835 19.5118 16.7494C19.5457 16.7154 19.58 16.6818 19.6148 16.6486C19.6497 16.6154 19.6849 16.5826 19.7205 16.5503C19.7561 16.518 19.7921 16.4861 19.8285 16.4547C19.8648 16.4233 19.9016 16.3923 19.9387 16.3618C19.9759 16.3313 20.0134 16.3012 20.0513 16.2716C20.0892 16.242 20.1274 16.2129 20.166 16.1843C20.2046 16.1556 20.2436 16.1275 20.2828 16.0998C20.3221 16.0721 20.3617 16.0449 20.4017 16.0182C20.4417 15.9915 20.482 15.9653 20.5225 15.9396C20.5631 15.9139 20.604 15.8887 20.6452 15.864C20.6865 15.8393 20.728 15.8151 20.7697 15.7915C20.8116 15.7678 20.8537 15.7446 20.896 15.722C20.9384 15.6994 20.9811 15.6773 21.024 15.6557C21.0669 15.6341 21.1101 15.6131 21.1535 15.5926C21.197 15.5721 21.2407 15.5521 21.2846 15.5327C21.3285 15.5132 21.3727 15.4944 21.4171 15.476C21.4615 15.4577 21.506 15.4399 21.5508 15.4227C21.5957 15.4054 21.6407 15.3887 21.686 15.3726C21.7312 15.3565 21.7766 15.341 21.8223 15.326C21.8678 15.311 21.9136 15.2965 21.9597 15.2827C22.0056 15.2688 22.0517 15.2555 22.098 15.2428C22.1443 15.2301 22.1908 15.2179 22.2374 15.2063C22.284 15.1947 22.3307 15.1837 22.3775 15.1733C22.4244 15.1629 22.4714 15.1531 22.5185 15.1438C22.5656 15.1345 22.6128 15.1259 22.6602 15.1178C22.7074 15.1097 22.7548 15.1022 22.8024 15.0953C22.8499 15.0883 22.8975 15.082 22.9452 15.0763C22.9928 15.0705 23.0405 15.0654 23.0883 15.0608C23.136 15.0562 23.1839 15.0523 23.2318 15.0489Z" fill="#000999"/>
<path d="M13.824 15.0053C13.883 15.0023 13.9419 15.0006 14.001 15.0001C14.06 14.9997 14.119 15.0004 14.178 15.0024C14.237 15.0044 14.2959 15.0076 14.3548 15.0121C14.4136 15.0166 14.4724 15.0223 14.531 15.0292C14.5896 15.0362 14.6481 15.0443 14.7064 15.0537C14.7647 15.0631 14.8227 15.0737 14.8805 15.0856C14.9384 15.0974 14.996 15.1104 15.0533 15.1247C15.1106 15.1389 15.1675 15.1544 15.2242 15.171C16.0634 15.4239 16.7759 15.9714 17.192 16.7505C17.251 16.8611 17.4985 17.3943 17.4659 17.5032H14.547C14.4404 17.3764 14.3254 17.2698 14.18 17.1889C13.8599 17.011 13.4962 17.0092 13.1513 17.1081C12.8786 17.1843 12.6369 17.3335 12.4128 17.5032H9.42759C9.55016 17.3327 9.6808 17.1686 9.81951 17.011C10.8409 15.8544 12.2806 15.0979 13.824 15.0053Z" fill="#000999"/>
<path d="M5.21613 18.7924H7.69664C7.58048 19.314 7.44292 19.8329 7.31596 20.3521L6.54559 23.5047L6.53286 23.5421C6.49922 23.5637 4.30708 23.5397 4.11926 23.5269C4.23209 22.9731 4.37456 22.4218 4.50211 21.8711L5.21613 18.7924Z" fill="#000999"/>
<path d="M4.95418 15.2984H7.40744C7.43169 15.5893 7.48555 15.8842 7.52492 16.1738C7.5826 16.5981 7.63223 17.0255 7.70081 17.448H5.24784C5.20179 17.2095 5.17963 16.9596 5.14673 16.7183L4.95418 15.2984Z" fill="#7F7971"/>
</svg>
