<svg width="40" height="40" viewBox="0 0 40 40" fill="none" xmlns="http://www.w3.org/2000/svg">
  <rect width="40" height="40" fill="white" />
  <path
    d="M13.3871 15V21.2258L8.12903 15H5V25.3226H8.12903V19.0968L13.3871 25.3226L16.5161 20.1613L13.3871 15Z"
    fill="#FCA600" />
  <path
    d="M22.2258 25.3226L20.129 21.9032L18.0323 25.3226H14.3226L17.4516 20.1613L14.3226 15H18L20.0968 18.4194L22.2258 15H25.9032L22.7742 20.1613L25.9032 25.3226H22.2258Z"
    fill="#2AB1E3" />
  <path
    d="M31.3226 15H26.871L23.7419 20.1613L26.871 25.3226V23.0323H32.129C34.3226 23.0323 35 21.2581 35 19.7419V18.5161C35 16.5161 34.2903 15 31.3226 15ZM32.0968 19.1613C32.0968 19.7742 31.8065 20.4839 31.0968 20.4839H26.9032V17.5484H30.8065C31.7419 17.5484 32.0968 17.9355 32.0968 18.6452V19.1613Z"
    fill="#69CA00" />
</svg>
