<svg width="40" height="40" viewBox="0 0 40 40" fill="none" xmlns="http://www.w3.org/2000/svg">
<rect width="40" height="40" fill="white"/>
<path d="M9.65841 7.00396H31.1563C32.8014 7.00396 33.1815 8.55411 33.1659 9.32919V20.6298C33.088 24.9392 29.2869 33 20.3139 33C10.4996 33 6.90108 24.1641 7.18148 20.6298C7.19705 17.4985 7.21886 10.7987 7.18148 9.05016C7.14409 7.30159 8.81719 6.95746 9.65841 7.00396Z" fill="url(#paint0_radial_827_570)"/>
<path d="M24.8364 16.1144C24.8364 19.9252 19.4559 21.4134 16.2079 21.6924C17.7501 22.3202 19.234 22.511 21.2145 22.2298C27.29 21.3669 29.4624 18.3348 28.7094 14.2284C28.1252 11.0429 24.0359 8.41519 19.0587 9.11291C16.5903 9.45893 14.5548 10.2547 12.4399 12.8357C10.6708 14.833 9.90508 17.786 9.97481 20.3928C10.1384 26.508 14.9829 28.9575 18.3126 29.2292C21.6423 29.5008 23.6871 28.7836 25.907 27.5783C27.4743 26.7273 29.2485 24.6717 29.8093 23.0906C30.2162 21.9434 30.3451 21.2273 30.3451 21.2273C30.3451 21.2273 29.1827 22.9971 27.29 24.2527C25.675 25.3241 23.0747 26.1977 20.5075 26.1568C18.2087 26.1203 15.5069 25.064 14.5548 22.8576C13.4199 20.2275 13.99 18.0883 14.7124 16.6234C15.5806 14.8627 17.2644 13.8368 18.2936 13.3706C20.1336 12.5371 24.8364 12.4845 24.8364 16.1144Z" fill="white"/>
<defs>
<radialGradient id="paint0_radial_827_570" cx="0" cy="0" r="1" gradientUnits="userSpaceOnUse" gradientTransform="translate(25.2994 13.6502) rotate(118.916) scale(16.0446 16.9392)">
<stop stop-color="#6A7EEE"/>
<stop offset="1" stop-color="#0C2CDF"/>
</radialGradient>
</defs>
</svg>
