<svg width="40" height="40" viewBox="0 0 40 40" fill="none" xmlns="http://www.w3.org/2000/svg">
<rect width="40" height="40" fill="white"/>
<path d="M33.1343 14.5824V10.9575H27.3129L26.5785 14.6161H28.6721L28.0018 17.988H25.9073L25.1821 21.6374C25.1256 21.8853 25.0835 22.064 25.0582 22.2361C24.8862 23.3558 25.3735 23.2993 26.941 23.2993L26.2243 26.8888H23.4839C20.8937 26.8888 18.7865 26.8669 19.3337 24.21C19.4206 23.8044 19.5243 23.3946 19.5977 23.0017L20.5766 17.9914H18.5622L19.2342 14.6195H21.2478L21.9805 10.9609H20.0977V5.43036H13.1278V16.6634H4.78949C4.99607 19.5758 7.57287 19.9999 8.51303 22.0691C9.16061 23.4949 9.72639 26.0085 11.6168 26.0254C13.0646 26.0431 13.0646 24.1518 14.9289 24.1518C16.7907 24.1518 17.617 27.689 19.273 30.6014C20.5142 32.8881 22.5758 34.4227 24.4443 34.5543C25.9781 34.6605 26.7201 34.1394 26.7201 34.1394C26.3061 33.3064 26.0987 32.4758 26.0987 31.2262C26.0987 29.3535 27.5481 27.4824 29.2033 26.2353C31.4791 24.5725 33.9623 23.9427 34.7895 23.7403V17.9122C34.7895 17.9122 33.1343 17.0268 33.1343 14.5824ZM23.6391 23.2901L26.0877 10.9524H23.2664L20.8211 23.2901H23.6391ZM26.8441 7.05182H24.0219L23.4823 9.77281H26.3027L26.8441 7.05182Z" fill="#CC0000"/>
</svg>
