<svg width="50" height="50" viewBox="0 0 50 50" fill="none" xmlns="http://www.w3.org/2000/svg">
<path d="M25.0706 0.999832L0.930176 24.8594L24.7897 48.9998L48.9302 25.1403L25.0706 0.999832Z" fill="#3C34E3" stroke="#3C34E3" stroke-width="0.235803"/>
<path d="M22.265 26.4904V30.2078L13.3297 12.503L14.4494 11.3564L22.265 26.4904Z" fill="#2B2787" stroke="#2B2787" stroke-width="0.0716612"/>
<path d="M13.6141 37.7689L13.6521 23.5835L11.5616 19.9187L11.5872 35.737L13.6141 37.7689Z" fill="#2B2787" stroke="#2B2787" stroke-width="0.0716612"/>
<path d="M32.1762 20.1912L33.0992 18.4448L28.5387 9.4252C27.9204 8.26523 27.1493 7.91014 26.2205 8.38642L32.1762 20.1912Z" fill="#2B2787" stroke="#2B2787" stroke-width="0.0716612"/>
<path d="M39.8129 15.7053L41.1476 17.1027L36.9251 25.5642L40.8268 33.317L39.4967 34.5712L34.8367 25.4393L39.8129 15.7053Z" fill="#2B2787" stroke="#2B2787" stroke-width="0.0716612"/>
<path d="M25.1057 2.14268L2.15833 24.823L24.8386 47.7703L47.786 25.09L25.1057 2.14268Z" fill="#3C34E3" fill-opacity="0.04" stroke="black" stroke-width="0.224148"/>
<path d="M40.8268 33.3169L43.8976 39.3176C45.2298 41.902 42.5228 45.0412 39.8553 43.0768L39.271 42.1885C40.7424 42.3361 42.6966 40.9473 41.9036 39.2519L39.4882 34.6305L40.8268 33.3169Z" fill="#5A96BD" stroke="#5A96BD" stroke-width="0.0716612"/>
<path d="M9.07935 42.4395V44.3072H13.6164V37.8622L11.5875 35.8333V42.4223L9.07935 42.4395Z" fill="#5A96BD" stroke="#5A96BD" stroke-width="0.0716612"/>
<path d="M32.2671 29.8997L33.4199 32.0152L28.3535 42.378C27.2426 44.0726 25.548 43.5552 24.453 42.9285C25.3361 42.9072 26.0762 42.5601 26.5304 41.5619L32.2671 29.8997Z" fill="#2B2787" stroke="#2B2787" stroke-width="0.0716612"/>
<path d="M7.11243 42.396L11.5912 42.404V19.7795L22.7075 41.8744C23.6553 43.3363 25.6729 43.0968 26.3251 41.9106L32.2671 29.8994L38.0399 41.2288C39.0061 43.0346 42.7177 42.4848 41.9037 39.2517L34.8367 25.439L42.4406 10.3861C43.3603 6.83706 39.49 5.98742 38.36 8.0801L32.1764 20.1909L26.6313 9.14486C25.3967 6.54584 22.3016 7.4414 22.2424 9.99543L22.2253 30.1832L11.7266 9.45925C10.5683 7.03062 7.50511 7.05463 7.14491 10.1119L7.11243 42.396Z" fill="#CEE3F1" stroke="#CEE3F1" stroke-width="0.0716612"/>
<path d="M8.16101 42.4082H10.5527V14.4917L23.1992 39.9678C23.7611 41.1824 25.035 41.646 25.7265 39.9995L32.1745 27.2428L39.0184 40.7944C39.7168 41.4537 40.9078 40.9469 40.6402 39.8623L33.3499 25.2341L41.1341 9.85161C41.5477 8.68055 39.9656 8.05135 39.3763 9.0656L32.2379 23.1827L25.6251 10.0713C24.9426 8.52705 23.4076 8.58135 23.3132 10.3183V36.3042L10.4362 10.3247C9.77833 8.82424 8.25149 9.01908 8.1971 10.7189L8.16101 42.4082Z" fill="white" stroke="white" stroke-width="0.0716612"/>
<path d="M25.4542 36.0088V14.1438L30.9068 24.9987L25.4542 36.0088Z" fill="#CEE3F1" stroke="white" stroke-width="0.0716612"/>
<path d="M26.557 19.1653L26.5954 30.7153L29.5977 24.9323L26.557 19.1653Z" fill="#3C34E3" stroke="#3C34E3" stroke-width="0.0716612"/>
<path d="M26.5954 30.7153L28.5525 26.9457L28.548 22.9326L26.557 19.1653L26.5954 30.7153Z" fill="#2B2787" stroke="#2B2787" stroke-width="0.0716612"/>
<path d="M13.3296 12.5031L11.3582 8.74323C11.9475 8.33242 12.7297 8.24047 13.3089 9.05166L14.4493 11.3566L13.3296 12.5031Z" fill="#5A96BD" stroke="#5A96BD" stroke-width="0.0716612"/>
<path d="M41.1477 17.1026L43.826 11.4234C44.3994 9.79922 43.12 8.81832 42.5772 8.61597C42.8018 9.241 42.6862 9.8283 42.4407 10.3862L39.813 15.7052L41.1477 17.1026Z" fill="#5A96BD" stroke="#5A96BD" stroke-width="0.0716612"/>
</svg>
