<svg width="40" height="40" viewBox="0 0 40 40" fill="none" xmlns="http://www.w3.org/2000/svg">
<rect width="40" height="40" fill="white"/>
<path d="M20.0819 6.00002L6 19.9181L19.9181 34L34 20.082L20.0819 6.00002Z" fill="#3C34E3" stroke="#3C34E3" stroke-width="0.137551"/>
<path d="M18.4452 20.8694V23.0379L13.233 12.7101L13.8862 12.0413L18.4452 20.8694Z" fill="#2B2787" stroke="#2B2787" stroke-width="0.0418024"/>
<path d="M13.399 27.4485L13.4211 19.1737L12.2017 17.0359L12.2166 26.2632L13.399 27.4485Z" fill="#2B2787" stroke="#2B2787" stroke-width="0.0418024"/>
<path d="M24.227 17.1948L24.7653 16.1761L22.1051 10.9147C21.7444 10.238 21.2946 10.0309 20.7527 10.3087L24.227 17.1948Z" fill="#2B2787" stroke="#2B2787" stroke-width="0.0418024"/>
<path d="M28.6816 14.5781L29.4602 15.3932L26.9971 20.3291L29.2731 24.8516L28.4972 25.5831L25.7788 20.2562L28.6816 14.5781Z" fill="#2B2787" stroke="#2B2787" stroke-width="0.0418024"/>
<path d="M20.1024 6.66654L6.71643 19.8967L19.9466 33.2827L33.3326 20.0525L20.1024 6.66654Z" fill="#3C34E3" fill-opacity="0.04" stroke="black" stroke-width="0.130753"/>
<path d="M29.2731 24.8516L31.0643 28.3519C31.8415 29.8596 30.2624 31.6907 28.7063 30.5449L28.3655 30.0267C29.2238 30.1127 30.3638 29.3026 29.9012 28.3136L28.4922 25.6178L29.2731 24.8516Z" fill="#5A96BD" stroke="#5A96BD" stroke-width="0.0418024"/>
<path d="M10.7536 30.173V31.2625H13.4002V27.5029L12.2167 26.3193V30.1629L10.7536 30.173Z" fill="#5A96BD" stroke="#5A96BD" stroke-width="0.0418024"/>
<path d="M24.2798 22.8581L24.9523 24.0922L21.9969 30.1371C21.3489 31.1257 20.3604 30.8238 19.7216 30.4583C20.2368 30.4458 20.6685 30.2433 20.9334 29.6611L24.2798 22.8581Z" fill="#2B2787" stroke="#2B2787" stroke-width="0.0418024"/>
<path d="M9.60626 30.1479L12.2189 30.1525V16.9549L18.7034 29.8436C19.2563 30.6963 20.4332 30.5566 20.8137 29.8647L24.2798 22.8581L27.6473 29.467C28.2109 30.5203 30.376 30.1996 29.9011 28.3137L25.7788 20.2563L30.2144 11.4754C30.7509 9.40512 28.4932 8.90949 27.834 10.1302L24.2269 17.1948L20.9923 10.7513C20.2721 9.23524 18.4666 9.75765 18.4321 11.2475L18.4221 23.0237L12.2979 10.9347C11.6222 9.51803 9.83533 9.53203 9.62521 11.3154L9.60626 30.1479Z" fill="#CEE3F1" stroke="#CEE3F1" stroke-width="0.0418024"/>
<path d="M10.218 30.1547H11.6132V13.8701L18.9903 28.7312C19.3181 29.4397 20.0612 29.7101 20.4645 28.7496L24.2259 21.3082L28.2182 29.2133C28.6256 29.5979 29.3203 29.3023 29.1642 28.6696L24.9116 20.1365L29.4523 11.1634C29.6936 10.4802 28.7707 10.1132 28.4269 10.7049L24.2628 18.9398L20.4054 11.2915C20.0073 10.3907 19.1118 10.4224 19.0568 11.4356V26.594L11.5452 11.4393C11.1615 10.5641 10.2708 10.6777 10.2391 11.6692L10.218 30.1547Z" fill="white" stroke="white" stroke-width="0.0418024"/>
<path d="M20.3057 26.4219V13.6673L23.4863 19.9993L20.3057 26.4219Z" fill="#CEE3F1" stroke="white" stroke-width="0.0418024"/>
<path d="M20.9489 16.5966L20.9713 23.3341L22.7226 19.9607L20.9489 16.5966Z" fill="#3C34E3" stroke="#3C34E3" stroke-width="0.0418024"/>
<path d="M20.9713 23.3341L22.113 21.1351L22.1103 18.7942L20.9489 16.5966L20.9713 23.3341Z" fill="#2B2787" stroke="#2B2787" stroke-width="0.0418024"/>
<path d="M13.233 12.71L12.083 10.5168C12.4268 10.2771 12.8831 10.2235 13.2209 10.6967L13.8862 12.0412L13.233 12.71Z" fill="#5A96BD" stroke="#5A96BD" stroke-width="0.0418024"/>
<path d="M29.4602 15.3933L31.0225 12.0804C31.357 11.133 30.6107 10.5608 30.2941 10.4427C30.4251 10.8074 30.3577 11.1499 30.2144 11.4754L28.6816 14.5781L29.4602 15.3933Z" fill="#5A96BD" stroke="#5A96BD" stroke-width="0.0418024"/>
</svg>
