<svg version="1.1" xmlns="http://www.w3.org/2000/svg" style="display: block;" viewBox="0 0 1200 1200" width="300" height="300">
<path transform="translate(0,0)" fill="rgb(254,254,254)" d="M 0 0 L 51.6036 0 L 612.264 0 L 716.437 0 L 718.591 0 L 1146.03 0 L 1200 0 L 1200 60.0398 L 1200 516.053 L 1200 1200 L 0 1200 L 0 1138.72 L 0 680.667 L 0 677.503 L 0 569.712 L 0 567.803 L 0 49.5176 L 0 48.7135 L 0 0 z"/>
<path transform="translate(0,0)" fill="rgb(36,113,173)" d="M 0 0 L 51.6036 0 L 612.264 0 L 611.046 2.86695 C 609.884 30.8016 605.731 58.2723 602.542 86.0059 L 591.497 188.835 L 552.644 537.15 L 520.74 825.107 C 516.569 861.901 514.672 899.142 508.658 935.687 C 500.862 913.842 486.031 894.764 472.557 876.108 C 395.253 769.073 282.312 686.333 163.86 630.074 C 120.346 609.407 47.3636 579.088 0 569.712 L 0 567.803 L 0 49.5176 L 0 48.7135 L 0 0 z"/>
<path transform="translate(0,0)" fill="rgb(91,144,192)" d="M 0 49.5176 C 0.0335474 49.8183 0.0639591 50.1194 0.100642 50.4198 C 0.430293 53.1189 1.02436 54.7825 2.50051 57.0652 C 3.87184 59.1859 4.54645 60.6136 4.64692 63.2155 C 6.40695 108.796 5.79772 154.572 5.807 200.184 L 5.8263 407.702 C 5.97055 447.081 5.77749 486.461 5.24715 525.837 C 5.10813 535.541 6.37829 555.026 4.89522 563.481 C 4.48614 565.813 1.85722 566.708 0 567.803 L 0 49.5176 z"/>
<path transform="translate(0,0)" fill="rgb(91,144,192)" d="M 51.6036 0 L 612.264 0 L 611.046 2.86695 C 608.994 3.96955 606.851 4.46497 604.523 4.55843 C 573.414 5.80774 541.612 4.62673 510.44 4.63178 L 321.308 4.63897 L 170.062 4.62522 C 130.333 4.61888 90.6745 5.17023 51.0312 2.15154 L 51.6036 0 z"/>
<path transform="translate(0,0)" fill="rgb(254,254,254)" d="M 0 0 L 51.6036 0 L 51.0312 2.15154 C 32.2583 7.73623 18.8627 17.7315 8.42263 34.4044 C 5.47658 39.1093 3.18319 44.1498 0 48.7135 L 0 0 z"/>
<path transform="translate(0,0)" fill="rgb(254,254,254)" d="M 221.515 86.4919 L 351.116 86.6076 C 376.432 86.5625 401.853 85.9976 427.156 86.7138 C 440.148 87.0814 455.614 88.9067 464.909 99.0538 C 471.259 105.986 474.662 116.628 474.117 125.923 C 473.544 135.7 469.787 145.633 462.238 152.127 C 456.088 157.419 448.58 158.199 440.819 159.11 C 407.767 162.993 369.874 160.727 336.174 160.732 C 304.847 160.736 270.936 162.532 239.949 160.268 L 240.033 281.77 C 275.848 281.183 311.668 281.002 347.486 281.229 C 368.34 281.234 391.249 279.471 411.799 282.813 C 418.889 283.966 425.4 285.97 430.782 290.928 C 437.9 297.485 441.697 308.493 441.841 318.003 C 441.971 326.555 439.115 335.532 432.997 341.678 C 421.179 353.55 404.277 354.003 388.644 354.183 L 240.027 354.052 L 240.009 458.861 C 240.011 483.663 242.214 511.672 236.489 535.889 C 235.008 542.152 231.422 547.874 227.109 552.583 C 218.392 562.182 206.148 567.826 193.187 568.218 C 181.099 568.557 168.615 564.189 159.803 555.811 C 147.207 543.836 144.167 526.651 143.746 510.048 C 143.048 482.44 143.651 454.671 143.662 427.046 L 143.725 267.329 L 143.604 183.342 C 143.562 166.859 142.474 149.545 144.523 133.18 C 145.936 121.899 149.351 110.031 157.461 101.699 C 173.445 85.2778 200.343 86.7708 221.515 86.4919 z"/>
<path transform="translate(0,0)" fill="rgb(36,113,173)" d="M 716.437 0 L 718.591 0 L 1146.03 0 L 1200 0 L 1200 60.0398 L 1200 516.053 C 1197.82 516.399 1195.75 516.544 1193.89 517.82 C 1193.65 517.844 1193.4 517.875 1193.16 517.892 C 1182.61 518.62 1156.06 507.037 1145.45 503.002 C 1046.54 465.394 954.054 411.615 876.636 339.058 C 795.896 263.387 735.367 162.459 719.843 51.8718 C 717.429 34.6712 717 17.3341 716.437 0 z"/>
<path transform="translate(0,0)" fill="rgb(212,229,254)" d="M 1194.16 57.8776 L 1200 60.0398 L 1200 516.053 C 1197.82 516.399 1195.75 516.544 1193.89 517.82 C 1194.85 502.023 1194.05 485.672 1194.06 469.828 L 1194.05 375.474 L 1194.16 57.8776 z"/>
<path transform="translate(0,0)" fill="rgb(91,144,192)" d="M 718.591 0 L 1146.03 0 L 1150.35 3.24857 C 1136.55 2.25148 1122.59 3.50079 1108.77 3.79171 C 1089.55 4.04669 1070.33 4.12544 1051.11 4.02793 L 815.768 3.94779 L 753.457 3.99741 C 743.032 4.01452 731.181 5.14295 720.973 3.40276 L 718.591 0 z"/>
<path transform="translate(0,0)" fill="rgb(254,254,254)" d="M 1146.03 0 L 1200 0 L 1200 60.0398 L 1194.16 57.8776 C 1193.05 49.2477 1190.36 41.1841 1186.18 33.558 C 1178.26 19.0854 1166.34 8.02025 1150.35 3.24857 L 1146.03 0 z"/>
<path transform="translate(0,0)" fill="rgb(36,113,173)" d="M 0 677.503 C 35.5921 684.435 78.4776 703.102 111.457 718.854 C 226.842 773.966 330.724 848.421 402.967 955.67 C 450.889 1026.11 477.576 1108.83 479.854 1194 L 184.223 1193.95 L 103.266 1194.02 C 86.981 1194.06 69.8578 1195.35 53.7448 1192.96 C 40.9553 1191.06 29.9361 1185.93 20.7743 1176.7 C 13.0886 1168.96 6.92875 1158.78 3.844 1148.27 C 2.91025 1144.95 3.78165 1141.31 1.96406 1138.29 L 0 1138.72 L 0 680.667 L 0 677.503 z"/>
<path transform="translate(0,0)" fill="rgb(91,144,192)" d="M 0 680.667 C 2.32885 682.617 4.20561 684.558 4.54865 687.69 C 6.73932 707.692 5.12195 733.024 5.06031 753.466 L 4.84967 880.154 L 4.89907 1049.87 C 4.91967 1082.52 6.46963 1115.73 3.844 1148.27 C 2.91025 1144.95 3.78165 1141.31 1.96406 1138.29 L 0 1138.72 L 0 680.667 z"/>
<path transform="translate(0,0)" fill="rgb(36,113,173)" d="M 685.317 264.778 C 693.219 271.15 706.832 296.403 713.303 305.947 C 722.191 319.057 731.823 332.223 741.836 344.498 C 838.364 462.828 976.046 551.433 1119.2 602.436 C 1143.08 610.944 1169.43 622.894 1194.66 625.475 C 1193.23 642.041 1194.42 659.536 1194.41 676.232 L 1194.4 780.379 L 1194.82 1129.55 C 1194.76 1146.65 1189.77 1162.84 1177.26 1175.06 C 1155.28 1196.53 1124.92 1194.3 1096.73 1194.11 L 584.117 1194.18 C 588.125 1173.1 588.952 1150.68 591.144 1129.3 C 594.373 1097.81 598.361 1066.43 601.459 1034.9 C 606.85 980.015 614.242 925.232 620.425 870.434 C 623.4 844.065 624.891 817.526 627.884 791.153 L 646.272 634.943 C 651.335 588.411 655.194 541.618 660.874 495.179 L 674.307 378.918 C 678.886 341.081 684.466 302.939 685.317 264.778 z"/>
<path transform="translate(0,0)" fill="rgb(254,254,254)" d="M 890.349 626.419 C 901.851 625.558 913.845 625.682 925.371 626.173 C 970.908 628.111 1019.22 643.878 1050.65 678.17 C 1067.09 696.097 1079.34 718.431 1078.02 743.467 C 1077.39 755.457 1073.41 767.166 1064.19 775.254 C 1054.56 783.699 1040.7 786.192 1028.23 785.334 C 1005.72 783.786 995.303 756.303 985.551 739.524 C 981.17 731.986 976.101 724.668 970.302 718.146 C 957.924 704.222 941.98 697.202 923.47 696.14 C 893.922 694.445 860.957 694.18 837.629 715.378 C 828.073 724.062 821.153 735.839 820.658 748.961 C 818.933 794.74 887.434 806.722 920.719 815.267 C 941 820.331 961.147 825.911 981.143 832.003 C 1011.8 841.56 1045.86 854.741 1068.02 879.007 C 1092.7 906.043 1099.28 938.793 1097.61 974.617 C 1095.9 1011.32 1082.03 1043.68 1054.6 1068.63 C 1012.98 1106.47 949.177 1117.78 894.786 1115.21 C 853.413 1114.62 805.325 1100.56 773.306 1073.63 C 746.563 1051.14 724.258 1015.6 721.74 980.05 C 720.877 967.867 726.203 955.142 734.277 946.177 C 741.971 937.634 752.75 934.621 763.932 934.151 C 799.075 932.675 806.543 970.996 819.596 995.517 C 825.048 1005.85 832.237 1015.16 840.848 1023.06 C 863.95 1043.86 892.261 1045.61 921.746 1043.95 C 947.139 1042.53 972.33 1033.36 989.474 1013.81 C 1000.5 1001.23 1004.35 985.79 1003.05 969.33 C 1001.95 955.365 996.515 943.191 986.009 933.802 C 958.597 909.3 881.45 897.24 844.573 885.759 C 818.652 877.69 791.052 865.553 770.363 847.622 C 746.887 827.276 733.853 801.589 731.738 770.664 C 729.354 735.827 737.435 706.096 760.705 679.56 C 792.96 642.779 843.196 629.616 890.349 626.419 z"/>
</svg>